<svg xmlns="http://www.w3.org/2000/svg" xmlns:xlink="http://www.w3.org/1999/xlink" viewBox="0 0 174.941 105.461"><defs><style>.a{fill:url(#a);}</style><radialGradient id="a" cx="0.592" cy="0.65" r="0.992" gradientTransform="translate(0.235 0.445) scale(0.603 0.315)" gradientUnits="objectBoundingBox"><stop offset="0" stop-color="#f24405"/><stop offset="1" stop-color="#605750"/></radialGradient></defs><path class="a" d="M-981.151-230.3a51.922,51.922,0,0,1-5.9-1.675,26.459,26.459,0,0,0-5.669-1.446,2.4,2.4,0,0,0-1.813.689,5.483,5.483,0,0,0-.987,2.846h-1.7v-21.343h1.7q1.193,6.7,3.213,10.029a15.428,15.428,0,0,0,6.174,5.531,19.137,19.137,0,0,0,9.111,2.2q5.737,0,9.065-3.029a9.379,9.379,0,0,0,3.327-7.16,9.707,9.707,0,0,0-1.262-4.636,13.817,13.817,0,0,0-3.925-4.361,112.512,112.512,0,0,0-9.776-5.852,94.842,94.842,0,0,1-11.36-7.137,19.254,19.254,0,0,1-5.118-5.875l-.091-.17h-13.013v-1.7q3.9-.688,5.049-1.79,2.341-2.2,5.187-8.951l21.893-51.223h1.607l21.664,51.773q2.616,6.242,4.751,8.1a9.683,9.683,0,0,0,5.944,2.089v.944a2.778,2.778,0,0,0,1.4-1.095,7.724,7.724,0,0,0,.5-3.541v-20.935q0-3.039-.67-3.8a3.516,3.516,0,0,0-2.776-1.053h-1.22v-.885h14.691v.885a8.98,8.98,0,0,0-3.625.479,2.928,2.928,0,0,0-1.424,1.268,10.454,10.454,0,0,0-.383,3.66v20.385a6.646,6.646,0,0,0,.383,2.728,1.712,1.712,0,0,0,.886.742,15.544,15.544,0,0,0,3.732.239h2.369a17.148,17.148,0,0,0,5.24-.551,6.816,6.816,0,0,0,2.751-1.949,15.985,15.985,0,0,0,2.489-4.415l.789.167-2.776,8.8h-25.122v-.377h-21.789v-1.7q3.718-.184,5.026-1.239.067-.054.131-.11a25.19,25.19,0,0,0-2.77-8.579,15.4,15.4,0,0,0-6.082-5.829A16.827,16.827,0,0,0-979.5-291.3a11.112,11.112,0,0,0-7.895,2.914,8.867,8.867,0,0,0-3.121,6.632,7.857,7.857,0,0,0,1.974,5.187q2.846,3.443,13.541,9.18A93.632,93.632,0,0,1-963.09-260.2a17.5,17.5,0,0,1,4.91,5.9,15.539,15.539,0,0,1,1.722,7.115A16.112,16.112,0,0,1-961.943-235q-5.485,5.118-14.114,5.117A29.878,29.878,0,0,1-981.151-230.3Zm-10.487-60.73a17.079,17.079,0,0,1,2.174-1.494H-991Zm25.144-.531-.405-.963h-2.15A18.425,18.425,0,0,0-966.495-291.559Zm-23.079-4.36h21.388l-10.557-25.152Zm64.747,58.277q-4.558-4.761-4.558-12.322a16.412,16.412,0,0,1,5.263-12.608,15.528,15.528,0,0,1,10.934-4.235,14.714,14.714,0,0,1,10.946,4.8,16.561,16.561,0,0,1,4.63,11.975,17.053,17.053,0,0,1-4.666,12.273,15.048,15.048,0,0,1-11.293,4.882A14.963,14.963,0,0,1-924.827-237.642Zm4.2-24.188q-3.279,4.019-3.279,11.771,0,7.943,3.4,12.227a8.4,8.4,0,0,0,6.891,3.253,9.414,9.414,0,0,0,7.548-3.565q2.978-3.565,2.979-11.245,0-8.325-3.278-12.417a8.842,8.842,0,0,0-7.274-3.254A8.558,8.558,0,0,0-920.627-261.831Zm58.594,28.208v-.885h1.148a4.546,4.546,0,0,0,2.177-.551,2.01,2.01,0,0,0,1.041-1.148,11.245,11.245,0,0,0,.275-3.134v-21.079q0-3.086-.623-3.8a3.705,3.705,0,0,0-2.871-.957h-1.148v-.886h25l.358,7.106h-.932a11.227,11.227,0,0,0-1.112-3.517,3.818,3.818,0,0,0-1.807-1.46,10.825,10.825,0,0,0-3.373-.359h-8.9v12.825h7.13q2.776,0,3.708-.838a5.386,5.386,0,0,0,1.388-3.875h.886v11.292h-.886a12.355,12.355,0,0,0-.67-3.038,2.994,2.994,0,0,0-1.412-1.316,7.2,7.2,0,0,0-3.014-.479h-7.13v10.695a9.977,9.977,0,0,0,.191,2.62,1.5,1.5,0,0,0,.671.742,4.063,4.063,0,0,0,1.818.275h5.5a14.927,14.927,0,0,0,4-.383,5.956,5.956,0,0,0,2.392-1.507,18.415,18.415,0,0,0,3.039-4.474h.957l-2.8,8.134Zm-9.235,0-10.982-15.169q-1.22.047-1.986.048-.311,0-.67-.012t-.742-.036v9.427q0,3.063.67,3.8a3.408,3.408,0,0,0,2.728,1.053h1.268v.885h-13.9v-.885h1.22a3.262,3.262,0,0,0,2.943-1.34,7.556,7.556,0,0,0,.5-3.517v-20.959q0-3.062-.67-3.8a3.516,3.516,0,0,0-2.776-1.053h-1.22v-.886h11.82a28.078,28.078,0,0,1,7.62.754,8.719,8.719,0,0,1,4.163,2.775,7.22,7.22,0,0,1,1.711,4.821,7.578,7.578,0,0,1-1.949,5.192,11.022,11.022,0,0,1-6.042,3.11l6.7,9.307a16.64,16.64,0,0,0,3.947,4.259,9.947,9.947,0,0,0,4.307,1.34v.885Zm-14.379-30.17V-250.3c.3,0,.566,0,.789.013s.407.012.55.012q4.643,0,7-2.01a6.432,6.432,0,0,0,2.357-5.12,6.685,6.685,0,0,0-1.9-4.941,6.807,6.807,0,0,0-5.036-1.9A21.078,21.078,0,0,0-885.648-263.793Zm-66.395,30.17v-.885h1.148a3.3,3.3,0,0,0,2.92-1.245,7.255,7.255,0,0,0,.527-3.493v-24.787h-3.9a10.872,10.872,0,0,0-3.229.335,4.432,4.432,0,0,0-2.129,1.747,7.068,7.068,0,0,0-1.053,3.493h-.909l.383-7.609H-931.8l.358,7.609h-.909a9.206,9.206,0,0,0-.717-2.871,4.807,4.807,0,0,0-1.974-2.046,6.891,6.891,0,0,0-3.243-.658h-4.569v24.787q0,2.99.646,3.732a3.589,3.589,0,0,0,2.8,1.005h1.124v.885Zm36.129-37.685v-.886h1.22a3.262,3.262,0,0,0,2.943-1.34,7.724,7.724,0,0,0,.5-3.541v-20.935q0-3.039-.67-3.8a3.514,3.514,0,0,0-2.775-1.053h-1.22v-.885h14.691v.885a8.98,8.98,0,0,0-3.625.479,2.928,2.928,0,0,0-1.424,1.268,10.454,10.454,0,0,0-.383,3.66v20.385a6.646,6.646,0,0,0,.383,2.728,1.711,1.711,0,0,0,.886.742,15.539,15.539,0,0,0,3.732.239h2.369a17.149,17.149,0,0,0,5.24-.551,6.828,6.828,0,0,0,2.751-1.949,15.986,15.986,0,0,0,2.488-4.415l.789.167-2.776,8.8Z" transform="translate(1009.173 335.346)"/></svg>